<?xml version="1.0" encoding="utf-8"?>
<!-- Generator: Adobe Illustrator 21.1.0, SVG Export Plug-In . SVG Version: 6.00 Build 0)  -->
<svg version="1.1" id="Layer_1" xmlns="http://www.w3.org/2000/svg" xmlns:xlink="http://www.w3.org/1999/xlink" x="0px" y="0px"
	 viewBox="0 0 500 500" style="enable-background:new 0 0 500 500;" xml:space="preserve">
<style type="text/css">
	.st0{fill:#D7DF32;}
	.st1{fill:#7320AF;}
	.st2{fill:#8932C6;}
	.st3{fill:#9A57C1;}
</style>
<g id="XMLID_66_">
	<g id="XMLID_95_">
		<polygon id="XMLID_101_" class="st0" points="249.7,100.5 249.8,100.4 249.8,22.4 249.7,22.4 249.7,100.4 		"/>
		<polygon id="XMLID_104_" class="st1" points="249.8,398.9 249.7,398.9 249.7,398.9 159.9,347.1 120.5,324.3 120.5,324.3 
			120.4,324.3 52.9,363.3 52.9,363.3 249.8,477 446.6,363.3 379,324.3 		"/>
		<polygon id="XMLID_117_" class="st2" points="379,175 379,324.3 446.6,363.3 446.6,136 249.8,22.4 249.8,100.4 		"/>
		<polygon id="XMLID_137_" class="st3" points="52.9,363.3 120.4,324.3 120.5,324.3 120.5,175 249.7,100.5 249.7,100.4 249.7,22.4 
			249.7,22.4 52.8,136 52.8,363.3 		"/>
		<polygon id="XMLID_138_" class="st1" points="191.1,313.2 165.4,298.4 165.4,201 249.7,249.7 249.7,347.1 249.8,347.1 
			249.8,249.7 334.1,201 249.8,152.3 249.7,152.3 165.4,201 165.4,298.4 165.4,298.4 		"/>
		<polygon id="XMLID_139_" class="st3" points="249.8,249.7 249.8,347.1 334.1,298.4 334.1,201 		"/>
		<polygon id="XMLID_140_" class="st2" points="165.4,201 165.4,298.4 191.1,313.2 249.7,347.1 249.7,347.1 249.7,249.7 		"/>
	</g>
</g>
</svg>
