<?xml version="1.0" encoding="utf-8"?>
<!-- Generator: Adobe Illustrator 21.1.0, SVG Export Plug-In . SVG Version: 6.00 Build 0)  -->
<svg version="1.1" id="Layer_1" xmlns="http://www.w3.org/2000/svg" xmlns:xlink="http://www.w3.org/1999/xlink" x="0px" y="0px"
	 viewBox="0 0 1920 1080" style="enable-background:new 0 0 1920 1080;" xml:space="preserve">
<style type="text/css">
	.st0{fill:#A5DCF0;}
	.st1{fill:#D8EDEE;}
	.st2{fill:#FFFFFF;}
	.st3{fill:#C6421E;}
	.st4{fill:#AA290B;}
	.st5{fill:#2B2B38;}
	.st6{fill:#F0F1F1;}
	.st7{opacity:0.3;fill:#E6E6E7;}
	.st8{opacity:0.5;fill:#FFFFFF;}
</style>
<rect y="-0.3" class="st0" width="1920" height="1080.3"/>
<g>
	<path class="st1" d="M1698.1,937.2c-7.4-1.5-14.8-2.2-22.1-2.3c2-5.7,3.7-11.6,4.9-17.7c14.1-70.8-31.8-139.6-102.6-153.7
		c-60.3-12-119.2,19.6-144,73c-14.5-12.9-32.4-22.2-52.8-26.3c-44.5-8.9-88.1,9.8-113.1,44.2c-7.2-2.9-14.8-5.2-22.7-6.8
		c-68.9-13.7-135.8,30.9-149.6,99.8c-10.6,53.3,13.7,105.4,57.2,132.7h641.2C1806.9,1014.1,1764,950.4,1698.1,937.2z"/>
	<path class="st1" d="M257.9,967.5c-5.1-2.1-10.2-3.6-15.4-4.5c1.5-2.6,2.8-5.4,4-8.2c16.9-40.2-2-86.6-42.2-103.5
		c-22.1-9.3-46.1-7.8-66.1,2.2c-4.2-22.5-19.3-42.6-42-52.1c-27.6-11.6-58.3-4.4-78,15.8c-5.2-4.9-11.1-9.2-17.7-12.7v257.8
		c23.5,9.1,48.7,6.6,69.2-4.9c3.8,8.4,9.2,16.1,16.1,22.5H280c6.1-6.1,11.2-13.5,14.8-22C309.6,1022.8,293.1,982.3,257.9,967.5z
		 M91.6,933.3c1.2-0.4,2.3-0.8,3.4-1.3c0.2,2.3,0.6,4.6,1,6.9C94.7,937,93.2,935.1,91.6,933.3z"/>
	<polygon class="st1" points="921,598 847,935 1072,936 1000,598 	"/>
	<path class="st1" d="M1215.8,1029.7c10.8-29.6,4.1-61.3-14.7-83.9c7.1-6.3,12.7-14.3,16.1-23.8c10.2-28.1-2.4-58.8-28.3-72.2
		c7-7.9,12.7-17.2,16.5-27.7c16.2-44.6-6.8-93.8-51.4-110c-44.6-16.2-93.8,6.8-110,51.4c-1.8,5-3.1,10-4,15c-3.7-2-7.7-3.8-11.8-5.3
		C980.8,756,928.2,780.5,911,828c-14.7,40.5,1,84.7,35.4,107.5c-10.5,8.7-18.8,20.1-23.8,33.8c-10.9,29.9-2.5,62.1,18.7,83.1
		c-2.8,4.7-5.2,9.7-7.1,15c-1.5,4.1-2.7,8.3-3.5,12.5h236.3C1188.8,1071.3,1207.1,1053.6,1215.8,1029.7z"/>
	<path class="st1" d="M1919.1,804.3c-4.3-2.7-9-5.1-13.9-7c-43.7-17.2-93,4.3-110.1,48c-1.9,4.9-3.3,9.8-4.3,14.8
		c-3.6-2.1-7.5-3.9-11.5-5.5c-46.6-18.3-99.2,4.6-117.5,51.2c-15.6,39.7-1.2,83.8,32.2,107.3c-10.6,8.3-19.1,19.4-24.4,32.8
		c-4.4,11.2-6,22.8-5.2,34.1h254.7V804.3z"/>
	<path class="st1" d="M875.4,822.1c4.3-6.4,7.8-13.6,10.2-21.5c11.4-37.7-6.4-76.4-39.8-86.6c-30.2-9.2-62.9,8.2-77.3,39.6
		c-28.1-0.9-55.5,19.6-65,51c-7.8,25.6-1.7,51.7,13.7,68.6c-13.7,5.2-25.3,17.4-30.3,33.7c-8,26.3,4.4,53.3,27.7,60.3
		c2.1,0.6,4.1,1,6.2,1.3c-0.1,0.2-0.1,0.3-0.2,0.5c-8.6,28.3,4.8,57.3,29.8,64.9c25.1,7.6,52.3-9.1,60.9-37.4
		c1.5-5.1,2.4-10.3,2.5-15.3c0.6,0.2,1.3,0.4,1.9,0.6c40.1,12.2,83.7-14.6,97.4-59.8C925.9,880.7,909.1,838.3,875.4,822.1z"/>
	<path class="st1" d="M909.6,952.5c-1.9-70.2-60.3-125.6-130.5-123.7c-24.1,0.6-46.5,8-65.4,20.2c0-0.5,0-1,0-1.5
		c-1.8-67.3-57.8-120.4-125.2-118.6c-45,1.2-83.6,26.6-103.7,63.4c-12-6.1-25.6-9.4-40-9c-42.6,1.1-76.9,33.9-81,75.2
		c-14.2-5.2-29.5-7.9-45.5-7.4c-67.6,1.8-121,58.1-119.2,125.7c1.2,44.4,25.9,82.7,61.9,103.2h549
		C868.4,1067.1,911.3,1014.4,909.6,952.5z"/>
</g>
<g>
	<path class="st2" d="M1629,911.3c-54.6-28.3-120-14.2-158.6,30.3c-10.3-16.4-25-30.3-43.4-39.9c-40.3-20.9-87.4-15-121,11.2
		c-6.1-4.8-12.8-9.1-20-12.8c-62.4-32.3-139.1-7.9-171.3,54.5c-21.3,41.2-17.9,88.6,4.8,125.4h569
		C1716.2,1017.4,1690.6,943.2,1629,911.3z"/>
	<path class="st2" d="M317.5,1037.2c-2.9-33.7-32.5-58.6-66.2-55.7c-4.8,0.4-9.5,1.4-13.9,2.9c0.1-2.7,0-5.4-0.2-8.1
		c-3.3-38.5-37.2-67.1-75.8-63.7c-21.2,1.8-39.4,12.9-50.9,28.9c-12.6-15.9-32.7-25.4-54.4-23.5c-26.4,2.3-47.5,20.6-54.6,44.6
		c-0.3-0.1-0.6-0.1-0.9-0.2V1080h304.2C313.9,1068.3,318.9,1053.2,317.5,1037.2z M106.9,1023.3c0.7-0.8,1.5-1.6,2.2-2.4
		c1.1,1.7,2.3,3.3,3.6,4.9C110.8,1024.9,108.8,1024.1,106.9,1023.3z"/>
	<polygon class="st2" points="931,598 878,912 1036,912 993,598 	"/>
	<path class="st2" d="M1201,1010.2c7.1-6.3,12.7-14.3,16.1-23.8c10.2-28.1-2.4-58.8-28.3-72.2c7-7.9,12.7-17.2,16.5-27.7
		c16.2-44.6-6.8-93.8-51.4-110c-44.6-16.2-93.8,6.8-110,51.4c-1.8,5-3.1,10-4,15c-3.7-2-7.7-3.8-11.8-5.3
		c-47.5-17.3-100.1,7.3-117.4,54.8c-14.7,40.5,1,84.7,35.4,107.5c-10.5,8.7-18.8,20.1-23.8,33.8c-5.6,15.4-6.1,31.4-2.3,46.2h299.3
		C1224.1,1054.7,1216.9,1029.3,1201,1010.2z"/>
	<path class="st2" d="M1919.1,949.5c-35.9-16.3-79.5-5.8-103.6,27.2c-3.1,4.2-5.7,8.6-7.9,13.2c-3-2.9-6.2-5.7-9.7-8.2
		c-40.4-29.5-97.1-20.8-126.7,19.6c-17.2,23.6-21.4,52.6-13.9,78.7h261.8V949.5z"/>
	<path class="st2" d="M897.9,1053c-0.4-5.3-1.5-10.4-3.1-15.2c0.7,0,1.3,0,2-0.1c41.8-3.1,72.8-43.8,69.3-90.9
		c-3.2-43.1-34.1-76.6-71.3-79.6c1.7-7.5,2.4-15.5,1.8-23.7c-2.9-39.3-33.5-69-68.3-66.5c-31.5,2.3-55.7,30.3-57.9,64.7
		c-26.6,9.3-44.7,38.2-42.3,71c2,26.7,17,48.8,37.4,59c-10.9,9.8-17.4,25.3-16.1,42.3c2,27.4,23.3,48.1,47.6,46.3
		c2.1-0.2,4.2-0.5,6.3-1c0,0.2,0,0.4,0,0.6c0.5,7.2,2.3,13.9,5.1,20h85.2C896.9,1071.9,898.6,1062.7,897.9,1053z"/>
	<path class="st2" d="M961.7,1058c-1.9-70.2-60.3-125.6-130.5-123.7c-24.1,0.6-46.5,8-65.4,20.2c0-0.5,0-1,0-1.5
		C764,885.6,708,832.5,640.7,834.3c-45,1.2-83.6,26.6-103.7,63.4c-12-6.1-25.6-9.4-40-9c-42.6,1.1-76.9,33.9-81,75.2
		c-14.1-5.2-29.5-7.9-45.5-7.4c-66.9,1.8-119.8,56.8-119.2,123.5h709.1C961.4,1072.8,961.9,1065.5,961.7,1058z"/>
</g>
<path class="st2" d="M1380.8,169c-4.3,0.8-8.3,2.3-11.9,4.2c-0.1-0.6-0.2-1.2-0.3-1.9c-4.7-23.9-27.8-39.5-51.7-34.8
	c-13.9,2.7-24.9,11.7-30.9,23.4c-8-5-17.8-7.1-27.8-5.1c-15.3,3-26.7,14.6-30.2,28.8c-4.4-0.8-9.1-0.8-13.8,0.1
	c-17.7,3.5-30,18.8-30.2,36.2h246.3c1.2-5.6,1.4-11.4,0.2-17.4C1426.1,179.5,1403.8,164.5,1380.8,169z"/>
<path class="st2" d="M612.5,219.7c-1.9,0.4-3.7,1-5.4,1.7c-0.1-1.1-0.2-2.2-0.4-3.2c-3-15.3-17.8-25.2-33-22.2
	c-8.4,1.6-15.2,6.9-19.1,13.8c-5.7-5.8-14.2-8.7-22.8-7.1c-10.5,2-18.1,10.3-19.9,20.2c-3.3-0.6-6.7-0.6-10.1,0.1
	c-11.2,2.2-19.5,10.8-21.9,21.3h162c0-1.7-0.1-3.4-0.5-5.1C638.7,225.8,625.8,217.1,612.5,219.7z M556.5,242.6
	c0.3-0.3,0.5-0.7,0.8-1c0.5,0.6,1.1,1.2,1.7,1.8C558.2,243.1,557.4,242.8,556.5,242.6z"/>
<path class="st2" d="M771.9,94.2c-1.5,0.3-2.9,0.8-4.2,1.4c-0.1-0.8-0.2-1.7-0.3-2.5c-2.3-11.9-13.9-19.7-25.8-17.4
	c-6.6,1.3-11.9,5.4-14.9,10.7c-4.5-4.5-11-6.8-17.8-5.5c-8.2,1.6-14.1,8-15.5,15.7c-2.5-0.4-5.2-0.4-7.9,0.1
	c-8.8,1.7-15.2,8.4-17.1,16.6h126.4c0-1.3-0.1-2.6-0.4-4C792.4,98.9,782.3,92.1,771.9,94.2z M728.2,112c0.2-0.3,0.4-0.5,0.6-0.8
	c0.4,0.5,0.8,1,1.3,1.4C729.4,112.4,728.8,112.2,728.2,112z"/>
<g>
	<g>
		<path class="st3" d="M896.2,449.7c0,0-34.4,19.7-51.4,54.5c-21.6,44.2-27.3,111.9-18.9,116.2c8.4,4.3,18.5-28.2,35.4-47.3
			c28-31.6,52.1-29.7,52.1-29.7L896.2,449.7z"/>
		<path class="st4" d="M1026.1,449.7c0,0,34.4,19.7,51.4,54.5c21.6,44.2,27.3,111.9,18.9,116.2c-8.4,4.3-18.5-28.2-35.4-47.3
			c-28-31.6-52.1-29.7-52.1-29.7L1026.1,449.7z"/>
		<path class="st5" d="M1011.6,598.3c3.8-11.9,29.7-96.1,29.7-200.6c0-86.4-49.9-135.5-80.1-159.7c-30.2,24.2-80.1,73.3-80.1,159.7
			c0,104.5,25.9,188.6,29.7,200.6H1011.6z"/>
		<path class="st2" d="M859.8,350.3c0,132.3,32.8,210.9,37.6,226H1025c4.9-15.1,37.6-93.7,37.6-226c0-58.3-18-113.2-40.5-156.5
			H900.3C877.7,237.1,859.8,292,859.8,350.3z"/>
		<path class="st3" d="M961.2,112.7c-17.9,14.3-41.2,43.2-60.9,81.1h121.9C1002.4,156,979.1,127.1,961.2,112.7z"/>
		<path class="st6" d="M1022.1,193.8h-60.9v382.4h63.8c4.9-15.1,37.6-93.7,37.6-226C1062.7,292,1044.7,237.1,1022.1,193.8z"/>
		<g>
			<circle class="st0" cx="961.2" cy="294.8" r="43.7"/>
			<g>
				<path class="st5" d="M1006.3,320.6c14.1-24.9,5.4-56.5-19.5-70.6c-24.9-14.1-56.5-5.4-70.6,19.5c-14.1,24.9-5.4,56.5,19.5,70.6
					C960.6,354.2,992.2,345.5,1006.3,320.6z M996.3,315c-11,19.4-35.6,26.2-55,15.2c-19.4-11-26.2-35.6-15.2-55
					c11-19.4,35.6-26.2,55-15.2C1000.5,270.9,1007.3,295.6,996.3,315z"/>
				
					<ellipse transform="matrix(0.4931 -0.87 0.87 0.4931 230.5392 985.7724)" class="st7" cx="961.2" cy="295" rx="44.1" ry="44.1"/>
				<path class="st8" d="M927.2,307.3c-4.8-14.5,0-31,13-40.5c13-9.4,30.3-8.9,42.5,0.3c0,0-20.9,8.4-31.8,16.4
					C939.6,291.6,927.2,307.3,927.2,307.3z"/>
			</g>
		</g>
		<path class="st3" d="M961.5,465.3L961.5,465.3L961.5,465.3c-8.7,0-14.4,13.3-14.4,31.2c0,17.9,1.9,124.3,14.3,124.3c0,0,0,0,0,0
			c0,0,0,0,0,0c12.4,0,14.3-106.4,14.3-124.3C975.8,478.6,970.1,465.3,961.5,465.3z"/>
		<path class="st4" d="M961.2,193.8h60.9c-19.8-37.9-43.1-66.8-60.9-81.1c0,0,0,0,0,0V193.8z"/>
		<path class="st4" d="M961.5,465.3L961.5,465.3l0,155.5c0,0,0,0,0,0c12.4,0,14.3-106.4,14.3-124.3
			C975.8,478.6,970.1,465.3,961.5,465.3z"/>
	</g>
</g>
<g>
</g>
<g>
</g>
<g>
</g>
<g>
</g>
<g>
</g>
<g>
</g>
<g>
</g>
<g>
</g>
<g>
</g>
<g>
</g>
<g>
</g>
<g>
</g>
<g>
</g>
<g>
</g>
<g>
</g>
</svg>
